<svg width="22" height="33" viewBox="0 0 22 33" fill="none" xmlns="http://www.w3.org/2000/svg">
<path d="M11 27.8377V20.5044M8.25 26.9211V20.5044C8.25 19.5877 8.8 17.7544 11 17.7544C13.2 17.7544 13.75 19.5877 13.75 20.5044V26.0044M5.5 23.2544V20.5044C5.5 18.6711 6.6 15.0044 11 15.0044C15.4 15.0044 16.5 18.6711 16.5 20.5044M16.5 24.1711V23.2544" stroke="black" stroke-linecap="round" stroke-linejoin="round"/>
<path d="M6.41667 13.1711H4.58333C3.57081 13.1711 2.75 13.9919 2.75 15.0044V16.8377M19.25 16.8377V15.0044C19.25 13.9919 18.4292 13.1711 17.4167 13.1711H15.5833" stroke="black" stroke-width="2" stroke-linecap="round" stroke-linejoin="round"/>
<circle cx="11" cy="6" r="5" stroke="black" stroke-width="2"/>
</svg>
