<svg width="25" height="25" viewBox="0 0 25 25" fill="none" xmlns="http://www.w3.org/2000/svg">
<path d="M4.32692 2.88462C5.12212 2.88462 5.76923 2.2375 5.76923 1.44231C5.76923 0.647115 5.12212 0 4.32692 0C3.53173 0 2.88462 0.647115 2.88462 1.44231C2.88462 2.2375 3.53173 2.88462 4.32692 2.88462ZM4.32692 4.32692C1.93686 4.32692 0 6.26378 0 8.65385C0 10.5375 1.20513 12.1349 2.88462 12.7295V23.5577C2.88462 24.3542 3.53045 25 4.32692 25C5.1234 25 5.76923 24.3542 5.76923 23.5577V12.7295C7.44872 12.1349 8.65385 10.5375 8.65385 8.65385C8.65385 6.26378 6.71667 4.32692 4.32692 4.32692ZM4.32692 11.5385C2.73654 11.5385 1.44231 10.2442 1.44231 8.65385C1.44231 7.06346 2.73654 5.76923 4.32692 5.76923C5.91731 5.76923 7.21154 7.06346 7.21154 8.65385C7.21154 10.2442 5.91731 11.5385 4.32692 11.5385ZM20.6731 4.32692C18.283 4.32692 16.3462 6.26378 16.3462 8.65385C16.3462 10.5375 17.5513 12.1349 19.2308 12.7295V23.5577C19.2308 24.3542 19.8766 25 20.6731 25C21.4696 25 22.1154 24.3542 22.1154 23.5577V12.7295C23.7949 12.1349 25 10.5375 25 8.65385C25 6.26378 23.0628 4.32692 20.6731 4.32692ZM20.6731 11.5385C19.0827 11.5385 17.7885 10.2442 17.7885 8.65385C17.7885 7.06346 19.0827 5.76923 20.6731 5.76923C22.2635 5.76923 23.5577 7.06346 23.5577 8.65385C23.5577 10.2442 22.2635 11.5385 20.6731 11.5385ZM20.6731 2.88462C21.4683 2.88462 22.1154 2.2375 22.1154 1.44231C22.1154 0.647115 21.4683 0 20.6731 0C19.8779 0 19.2308 0.647115 19.2308 1.44231C19.2308 2.2375 19.8779 2.88462 20.6731 2.88462ZM13.9423 12.2705V1.44231C13.9423 0.645833 13.2965 0 12.5 0C11.7035 0 11.0577 0.645833 11.0577 1.44231V12.2705C9.37821 12.8651 8.17308 14.4625 8.17308 16.3462C8.17308 18.7362 10.1103 20.6731 12.5 20.6731C14.8901 20.6731 16.8269 18.7362 16.8269 16.3462C16.8269 14.4625 15.6218 12.8651 13.9423 12.2705ZM12.5 19.2308C10.9096 19.2308 9.61538 17.9365 9.61538 16.3462C9.61538 14.7558 10.9096 13.4615 12.5 13.4615C14.0904 13.4615 15.3846 14.7558 15.3846 16.3462C15.3846 17.9365 14.0904 19.2308 12.5 19.2308ZM12.5 22.1154C11.7048 22.1154 11.0577 22.7625 11.0577 23.5577C11.0577 24.3529 11.7048 25 12.5 25C13.2952 25 13.9423 24.3529 13.9423 23.5577C13.9423 22.7625 13.2952 22.1154 12.5 22.1154Z" fill="#333F4F"/>
</svg>
